<svg width="132" height="55" fill="none" xmlns="http://www.w3.org/2000/svg"><g clip-path="url(#clip0_28:177)" fill="#7825FF"><path d="M1.366 24.695h18.322v-4.833H6.626v-5.186h11.343V9.843H6.627v-5.01h12.89V0H1.366v24.695zm21.084 0h5.465l3.712-5.891 3.713 5.891h5.603l-6.497-9.701 6.222-9.208h-5.466l-3.471 5.503-3.438-5.503H22.69l6.222 9.313-6.463 9.596zm26.493.353c2.544 0 4.297-.952 5.569-2.399v2.046h5.053V13.723c0-2.54-.619-4.621-1.994-6.032-1.306-1.34-3.368-2.117-6.221-2.117-3.129 0-5.122.6-7.15 1.517l1.306 4.093c1.684-.636 3.093-1.024 5.087-1.024 2.613 0 3.953 1.235 3.953 3.458v.317c-1.306-.458-2.646-.776-4.503-.776-4.365 0-7.425 1.905-7.425 6.033 0 3.81 2.853 5.856 6.325 5.856zm1.582-3.704c-1.685 0-2.854-.847-2.854-2.293 0-1.764 1.375-2.681 3.61-2.681 1.272 0 2.44.282 3.334.705v.953c0 1.94-1.65 3.316-4.09 3.316zm13.688 3.351h5.225V14.147c0-2.54 1.203-3.845 3.162-3.845 1.96 0 3.06 1.305 3.06 3.845v10.548h5.224V14.147c0-2.54 1.203-3.845 3.163-3.845 1.96 0 3.06 1.305 3.06 3.845v10.548h5.224V12.383c0-4.551-2.337-6.95-6.222-6.95-2.51 0-4.434 1.058-6.05 2.999-.962-1.905-2.784-2.999-5.19-2.999-2.647 0-4.228 1.446-5.431 3.034V5.786h-5.225v18.91zM9.178 55c3.377 0 5.44-1.27 7.322-3.281l-2.037-2.117c-1.547 1.482-2.965 2.408-5.182 2.408-3.454 0-5.955-2.963-5.955-6.588 0-3.678 2.5-6.589 5.955-6.589 2.063 0 3.61.927 5.053 2.302l2.037-2.407c-1.727-1.694-3.738-2.885-7.064-2.885C3.841 35.843 0 40.157 0 45.422 0 50.793 3.919 55 9.178 55zm16.627 0c4.202 0 7.296-3.307 7.296-7.276 0-4.049-3.068-7.303-7.245-7.303-4.176 0-7.27 3.307-7.27 7.303 0 4.022 3.068 7.276 7.219 7.276zm.051-2.778c-2.423 0-4.15-2.064-4.15-4.498 0-2.487 1.598-4.498 4.099-4.498 2.449 0 4.176 2.037 4.176 4.498 0 2.46-1.598 4.498-4.125 4.498zm10.716 2.46h3.12V35.367h-3.12v19.316zm7.49 0h3.12V35.367h-3.12v19.316zM57.61 55c2.502 0 4.28-1.032 5.57-2.62l-1.83-1.666c-1.084 1.084-2.166 1.666-3.688 1.666-2.01 0-3.583-1.27-3.918-3.545h10.003c.026-.159.051-.688.051-.9 0-4.021-2.191-7.514-6.522-7.514-3.893 0-6.652 3.28-6.652 7.276 0 4.366 3.042 7.303 6.987 7.303zm-3.892-8.282c.283-2.17 1.624-3.678 3.532-3.678 2.062 0 3.248 1.614 3.455 3.678h-6.987zM73.335 55c2.656 0 4.228-1.085 5.569-2.62l-1.882-1.905c-.98 1.032-2.063 1.747-3.532 1.747-2.398 0-4.074-2.011-4.074-4.498s1.65-4.498 3.92-4.498c1.572 0 2.577.714 3.531 1.746l1.934-2.143c-1.264-1.43-2.862-2.408-5.44-2.408-4.074 0-7.064 3.334-7.064 7.303 0 4.022 2.99 7.276 7.038 7.276zm13.115-.08c1.16 0 2.037-.264 2.81-.714v-2.62a4.106 4.106 0 01-1.934.477c-1.057 0-1.675-.503-1.675-1.746v-6.853h3.66v-2.752h-3.66v-3.837h-3.12v3.837h-1.727v2.752h1.727v7.355c0 3.07 1.624 4.102 3.919 4.102zm6.176-16.351h3.351v-3.043h-3.351v3.043zm.129 16.113h3.12v-13.97h-3.12v13.97zm13.781.318c4.202 0 7.296-3.307 7.296-7.276 0-4.049-3.068-7.303-7.245-7.303-4.176 0-7.27 3.307-7.27 7.303 0 4.022 3.068 7.276 7.219 7.276zm.051-2.778c-2.423 0-4.151-2.064-4.151-4.498 0-2.487 1.599-4.498 4.1-4.498 2.449 0 4.176 2.037 4.176 4.498 0 2.46-1.598 4.498-4.125 4.498zm10.535 2.46h3.12v-7.884c0-2.17 1.263-3.467 3.067-3.467 1.857 0 2.914 1.244 2.914 3.414v7.938h3.119v-8.89c0-3.255-1.779-5.372-4.847-5.372-2.114 0-3.377 1.138-4.253 2.46v-2.169h-3.12v13.97zm12.612-47.537c-.132-.98-.142-2.664.745-3.231.019-.01.029-.03.038-.039.727-.24 1.237-.567.84-1.02L120.589-.452 103.158 2.02s-2 .288-1.821 3.453c.094 1.721.623 2.568 1.085 2.981l-1.425.443c-.396.452.104.779.84 1.02l.038.038c.896.567.878 2.25.745 3.231-3.208.923-2.057 1.231-2.057 1.231l.708.173c-.491.452-.982 1.318-.897 2.963.18 3.154 1.822 3.375 1.822 3.375l11.409 3.78 17.224-4.25s1.151-.299-2.058-1.232c-.132-.98-.151-2.664.746-3.232.019-.01.028-.028.038-.038.726-.24 1.236-.567.84-1.02l-.746-.23c.5-.308 1.246-1.106 1.368-3.193.085-1.433-.283-2.27-.707-2.77l1.481-.366c-.009 0 1.142-.298-2.057-1.23zm-14.411-.038l2.897-.606 9.787-2.049 1.463-.308c-.463.866-.444 2.059-.368 2.828.018.173.037.327.056.452l-1.604.394-12.354 3.136.123-3.847zm-12.438 3.077l1.453.308 9.4 1.972.821.173 2.463.52.122 3.846-12.693-3.231-1.255-.318a9.5 9.5 0 00.057-.452c.075-.76.104-1.952-.368-2.818zm-.567-4.866c-.018-.837.133-1.452.425-1.76a.756.756 0 01.566-.24c.085 0 .142.009.142.009l7.512 2.5 3.747 1.241-.123 3.876-10.513-3-.557-.154c-.019-.01-.047-.01-.066-.01-.038-.01-1.085-.106-1.133-2.462zm11.316 17.706l-11.07-3.164c-.019-.01-.047-.01-.066-.01-.047 0-1.086-.096-1.133-2.452-.019-.847.132-1.453.425-1.76a.756.756 0 01.566-.24c.085 0 .142.009.142.009l11.258 3.741-.122 3.876zm14.505-3.982c.019.173.038.327.057.452l-13.949 3.54.123-3.847 2.982-.626.444.106 1.651-.548 7.607-1.596 1.462-.308c-.471.875-.453 2.068-.377 2.827zm.764-5.232c-.028 0-.047 0-.075.01l-1.048.298-10.013 2.866-.132-3.876 3.284-1.096 7.956-2.645s.415-.096.727.221c.292.308.443.914.424 1.76-.047 2.366-1.085 2.462-1.123 2.462z"/></g><defs><clipPath id="clip0_28:177"><path fill="#fff" d="M0 0h132v55H0z"/></clipPath></defs></svg>